<svg width="328" height="328" viewBox="0 0 328 328" fill="none" xmlns="http://www.w3.org/2000/svg">
  <g filter="url(#filter0_bd)">
    <path
      d="M4 160C4 71.6344 75.6344 0 164 0V0C252.366 0 324 71.6344 324 160V160C324 248.366 252.366 320 164 320V320C75.6344 320 4 248.366 4 160V160Z"
      fill="#009688" />
    <path
      d="M4 160C4 71.6344 75.6344 0 164 0V0C252.366 0 324 71.6344 324 160V160C324 248.366 252.366 320 164 320V320C75.6344 320 4 248.366 4 160V160Z"
      fill="url(#paint0_linear)" fill-opacity="0.2" />
  </g>
  <g filter="url(#filter1_d)">
    <path
      d="M64.2647 196.985H90.5765L99.3471 154.924M271 196.985H174.524L159.488 255L138.37 154.924M99.3471 154.924L119.394 65L138.37 154.924M99.3471 154.924H138.37M138.37 154.924H189.65H58"
      stroke="white" stroke-width="12" />
  </g>
  <defs>
    <filter id="filter0_bd" x="0" y="-4" width="328" height="332" filterUnits="userSpaceOnUse"
      color-interpolation-filters="sRGB">
      <feFlood flood-opacity="0" result="BackgroundImageFix" />
      <feGaussianBlur in="BackgroundImage" stdDeviation="2" />
      <feComposite in2="SourceAlpha" operator="in" result="effect1_backgroundBlur" />
      <feColorMatrix in="SourceAlpha" type="matrix" values="0 0 0 0 0 0 0 0 0 0 0 0 0 0 0 0 0 0 127 0"
        result="hardAlpha" />
      <feOffset dy="4" />
      <feGaussianBlur stdDeviation="2" />
      <feColorMatrix type="matrix" values="0 0 0 0 0 0 0 0 0 0 0 0 0 0 0 0 0 0 0.25 0" />
      <feBlend mode="normal" in2="effect1_backgroundBlur" result="effect2_dropShadow" />
      <feBlend mode="normal" in="SourceGraphic" in2="effect2_dropShadow" result="shape" />
    </filter>
    <filter id="filter1_d" x="54" y="63.6944" width="221" height="200.811" filterUnits="userSpaceOnUse"
      color-interpolation-filters="sRGB">
      <feFlood flood-opacity="0" result="BackgroundImageFix" />
      <feColorMatrix in="SourceAlpha" type="matrix" values="0 0 0 0 0 0 0 0 0 0 0 0 0 0 0 0 0 0 127 0"
        result="hardAlpha" />
      <feOffset dy="4" />
      <feGaussianBlur stdDeviation="2" />
      <feColorMatrix type="matrix" values="0 0 0 0 0 0 0 0 0 0 0 0 0 0 0 0 0 0 0.25 0" />
      <feBlend mode="normal" in2="BackgroundImageFix" result="effect1_dropShadow" />
      <feBlend mode="normal" in="SourceGraphic" in2="effect1_dropShadow" result="shape" />
    </filter>
    <linearGradient id="paint0_linear" x1="54.9999" y1="288" x2="303" y2="68" gradientUnits="userSpaceOnUse">
      <stop stop-color="#009688" />
      <stop offset="1" stop-color="white" stop-opacity="0" />
    </linearGradient>
  </defs>
</svg>