<svg width="328" height="328" viewBox="0 0 328 328" fill="none" xmlns="http://www.w3.org/2000/svg">
  <g filter="url(#filter0_bd)">
    <path
      d="M4 160C4 71.6344 75.6344 0 164 0V0C252.366 0 324 71.6344 324 160V160C324 248.366 252.366 320 164 320V320C75.6344 320 4 248.366 4 160V160Z"
      fill="#009688" />
    <path
      d="M4 160C4 71.6344 75.6344 0 164 0V0C252.366 0 324 71.6344 324 160V160C324 248.366 252.366 320 164 320V320C75.6344 320 4 248.366 4 160V160Z"
      fill="url(#paint0_linear)" fill-opacity="0.2" />
  </g>
  <path
    d="M164 94C142.457 94 124.933 109.612 124.933 128.805C124.933 147.997 142.457 163.609 164 163.609C185.542 163.609 203.066 147.997 203.066 128.805C203.066 109.612 185.542 94 164 94Z"
    fill="white" />
  <path
    d="M228.382 196.785C216.703 181.176 197.157 171.859 176.106 171.859H151.893C130.842 171.859 111.296 181.176 99.6181 196.785L98.8889 197.759V226H229.11H229.111V197.759L228.382 196.785Z"
    fill="white" />
  <defs>
    <filter id="filter0_bd" x="0" y="-4" width="328" height="332" filterUnits="userSpaceOnUse"
      color-interpolation-filters="sRGB">
      <feFlood flood-opacity="0" result="BackgroundImageFix" />
      <feGaussianBlur in="BackgroundImage" stdDeviation="2" />
      <feComposite in2="SourceAlpha" operator="in" result="effect1_backgroundBlur" />
      <feColorMatrix in="SourceAlpha" type="matrix" values="0 0 0 0 0 0 0 0 0 0 0 0 0 0 0 0 0 0 127 0"
        result="hardAlpha" />
      <feOffset dy="4" />
      <feGaussianBlur stdDeviation="2" />
      <feColorMatrix type="matrix" values="0 0 0 0 0 0 0 0 0 0 0 0 0 0 0 0 0 0 0.25 0" />
      <feBlend mode="normal" in2="effect1_backgroundBlur" result="effect2_dropShadow" />
      <feBlend mode="normal" in="SourceGraphic" in2="effect2_dropShadow" result="shape" />
    </filter>
    <linearGradient id="paint0_linear" x1="54.9999" y1="288" x2="303" y2="68" gradientUnits="userSpaceOnUse">
      <stop stop-color="#009688" />
      <stop offset="1" stop-color="white" stop-opacity="0" />
    </linearGradient>
  </defs>
</svg>