<?xml version="1.0" encoding="iso-8859-1"?>
<!-- Generator: Adobe Illustrator 19.0.0, SVG Export Plug-In . SVG Version: 6.00 Build 0)  -->
<svg version="1.1" id="Capa_1" xmlns="http://www.w3.org/2000/svg" xmlns:xlink="http://www.w3.org/1999/xlink" x="0px"
	y="0px" viewBox="0 0 512 512" style="enable-background:new 0 0 512 512;" xml:space="preserve">
	<g>
		<g>
			<path d="M512,174.37c-0.012-7.773-2.298-15.656-7.353-22.154l-40.568-51.908c-6.795-8.628-17.134-13.021-27.466-13.038
			c-6.149,0-12.41,1.576-17.942,5.026l-39.556,24.61c-4.16,2.653-11.292,4.474-18.181,4.427c-5.352,0.023-10.524-1.048-13.939-2.735
			l-38.736-18.763c-6.248-3.008-13.213-4.241-20.217-4.253c-10.059,0.047-20.246,2.519-28.432,8.192l-4.52,3.171
			c-3.613-1.803-9.134-4.55-15.388-7.662c-7.5-3.677-16.319-5.16-25.227-5.189c-8.047,0.023-16.092,1.263-23.156,4.247
			l-26.384,11.258c-4.294,1.862-11.124,3.078-17.908,3.048c-6.784,0.029-13.602-1.187-17.896-3.048l-26.408-11.264
			c-4.817-2.054-9.966-2.932-15.069-2.938c-5.876,0.006-11.717,1.164-17.146,3.363c-5.422,2.211-10.455,5.475-14.463,9.954
			L7.965,162.56C2.636,168.511-0.011,176.005,0,183.382c-0.011,8.797,3.753,17.622,11.013,23.807l44.85,38.264l-21.276,22.195
			c-5.865,6.121-8.785,14.057-8.785,21.904c-0.011,8.349,3.305,16.779,9.873,22.986l4.316,4.101
			c4.067,3.858,8.954,6.312,14.068,7.621c-2.565,4.718-3.967,9.891-3.956,15.074c-0.011,8.355,3.305,16.779,9.861,22.993
			l-0.011-0.006l4.329,4.119c6.162,5.841,14.15,8.75,22.02,8.745c4.23,0.006,8.465-0.844,12.445-2.508
			c1.397,5.667,4.282,11.054,8.82,15.359l4.329,4.119c6.162,5.841,14.137,8.75,22.02,8.745c6.162,0.006,12.352-1.81,17.681-5.335
			c1.559,5.015,4.23,9.768,8.296,13.631l4.329,4.119c6.149,5.841,14.137,8.75,22.009,8.745c8.383,0.006,16.849-3.287,23.102-9.815
			l18.804-19.636l25.547,23.644c6.115,5.672,13.964,8.494,21.712,8.477c8.512,0.018,17.099-3.392,23.365-10.1l4.078-4.369
			c3.52-3.781,5.818-8.256,7.151-12.927l9.896,9.134c6.126,5.649,13.964,8.459,21.701,8.453c8.523,0.006,17.134-3.404,23.406-10.117
			l4.055-4.364c4.683-5.003,7.319-11.2,8.133-17.529c2.612,0.669,5.259,1.123,7.929,1.123c8.523,0,17.11-3.404,23.388-10.111
			l4.067-4.364c5.684-6.092,8.512-13.905,8.5-21.608c0-2.391-0.343-4.77-0.873-7.121c7.069-0.937,13.923-4.09,19.135-9.687
			l4.078-4.369c5.684-6.092,8.5-13.905,8.5-21.614c0.011-8.482-3.409-17.041-10.158-23.277l-7.627-7.045l68.838-76.11
			C509.138,191.876,511.989,183.056,512,174.37" />
		</g>
	</g>
	<g>
	</g>
	<g>
	</g>
	<g>
	</g>
	<g>
	</g>
	<g>
	</g>
	<g>
	</g>
	<g>
	</g>
	<g>
	</g>
	<g>
	</g>
	<g>
	</g>
	<g>
	</g>
	<g>
	</g>
	<g>
	</g>
	<g>
	</g>
	<g>
	</g>
</svg>